<?xml version="1.0" encoding="utf-8"?>
<!-- Generator: Adobe Illustrator 19.1.0, SVG Export Plug-In . SVG Version: 6.00 Build 0)  -->
<svg version="1.1" id="Layer_1" xmlns="http://www.w3.org/2000/svg" xmlns:xlink="http://www.w3.org/1999/xlink" x="0px" y="0px"
	 viewBox="0 0 64 64" enable-background="new 0 0 64 64" xml:space="preserve">
<g id="Cancel">
	<path d="M43.7070007,19.2929993c-0.3906021-0.3906994-1.0234032-0.3906994-1.4140015,0L32,29.5858994L21.7070007,19.2929993
		c-0.3906002-0.3906994-1.0234013-0.3906994-1.4140015,0c-0.3906994,0.3906002-0.3906994,1.0234013,0,1.4140015L30.5858994,31
		L20.2929993,41.2929993c-0.3906994,0.3906021-0.3906994,1.0233994,0,1.4140015C20.4883003,42.9023018,20.7441006,43,21,43
		s0.5116997-0.0976982,0.7070007-0.2929993L32,32.4141006l10.2929993,10.2929001C42.4882965,42.9023018,42.7440987,43,43,43
		c0.2558975,0,0.5116959-0.0976982,0.7070007-0.2929993c0.3906975-0.3906021,0.3906975-1.0233994,0-1.4140015L33.4141006,31
		l10.2929001-10.2929993C44.0976982,20.3164005,44.0976982,19.6835995,43.7070007,19.2929993z"/>
	<path d="M32,0C14.3268995,0,0,14.3268003,0,32c0,17.6730995,14.3268995,32,32,32s32-14.3269005,32-32
		C64,14.3268003,49.6730957,0,32,0z M32,62C15.4579,62,2,48.542099,2,32S15.4579,2,32,2s30,13.4579,30,30S48.542099,62,32,62z"/>
</g>
<g>
</g>
<g>
</g>
<g>
</g>
<g>
</g>
<g>
</g>
<g>
</g>
<g>
</g>
<g>
</g>
<g>
</g>
<g>
</g>
<g>
</g>
<g>
</g>
<g>
</g>
<g>
</g>
<g>
</g>
</svg>
