<?xml version="1.0" ?><svg width="128px" height="128px" viewBox="0 0 128 128" id="Layer_1" style="enable-background:new 0 0 128 128;" version="1.1" xml:space="preserve" xmlns="http://www.w3.org/2000/svg" xmlns:xlink="http://www.w3.org/1999/xlink"><g><path d="M109.7,35H18.1c-3.1,0-5.6,2.5-5.6,5.6v52c0,3.1,2.5,5.6,5.6,5.6h91.6c3.1,0,5.6-2.5,5.6-5.6v-52   C115.4,37.5,112.8,35,109.7,35z M16.2,92.6v-52c0-1,0.8-1.9,1.9-1.9h91.6c1,0,1.9,0.8,1.9,1.9v52c0,1-0.8,1.9-1.9,1.9H18.1   C17.1,94.5,16.2,93.7,16.2,92.6z"/><path d="M41.6,71.9c0,1,0.8,1.9,1.9,1.9h19.4c1,0,1.9-0.8,1.9-1.9c0-1-0.8-1.9-1.9-1.9H43.5C42.4,70,41.6,70.8,41.6,71.9z"/><path d="M23.9,73.7h14.2c1,0,1.9-0.8,1.9-1.9c0-1-0.8-1.9-1.9-1.9H23.9c-1,0-1.9,0.8-1.9,1.9C22,72.9,22.9,73.7,23.9,73.7z"/><path d="M42.9,81.9c1,0,1.9-0.8,1.9-1.9s-0.8-1.9-1.9-1.9H24c-1,0-1.9,0.8-1.9,1.9s0.8,1.9,1.9,1.9H42.9z"/><polygon points="30.3,58.6 32.4,44.9 30.4,44.9 28.8,56.1 28.8,56.1 27.2,44.9 25,44.9 27.1,58.6  "/><rect height="13.7" width="2.2" x="33.4" y="44.9"/><path d="M40,58.8c2.1,0,3.2-1.3,3.2-3.4c0-1.6-0.6-2.7-2.4-4.3c-1.4-1.2-1.8-2-1.8-3c0-1,0.4-1.4,1.1-1.4c0.7,0,1.1,0.4,1.1,1.4   v0.6h2v-0.4c0-2.2-1.1-3.4-3.2-3.4s-3.2,1.3-3.2,3.4c0,1.6,0.6,2.7,2.4,4.3c1.4,1.2,1.8,2,1.8,3c0,1-0.4,1.3-1.1,1.3   c-0.7,0-1.1-0.4-1.1-1.3v-1h-2v0.8C36.8,57.5,37.9,58.8,40,58.8z"/><path d="M46.3,56.1h2.6l0.4,2.5h2.2l-2.2-13.7h-3.2l-2.2,13.7h2L46.3,56.1z M47.5,47.3L47.5,47.3l1.1,6.9h-2.1L47.5,47.3z"/><path d="M83.4,62.6h18.4c2.1,0,3.7-1.7,3.7-3.7V47.2c0-2.1-1.7-3.7-3.7-3.7H83.4c-2.1,0-3.7,1.7-3.7,3.7v11.7   C79.7,60.9,81.4,62.6,83.4,62.6z M83.4,47.2h18.4l0,11.7H83.4V47.2z"/></g></svg>